<svg width="32" height="32" viewBox="0 0 32 32" fill="none" xmlns="http://www.w3.org/2000/svg">
<path d="M10.1654 1.22363L1.31836 9.97657V22.306L10.1654 31.153H22.4948L31.3419 22.306V9.97657L22.4948 1.22363H10.1654Z" fill="#E40134"/>
<path d="M10.6345 2.35303L2.44629 10.4471V21.8354L10.6345 29.9295H22.0228L30.1169 21.8354V10.4471L22.0228 2.35303H10.6345Z" fill="white"/>
<path d="M11.1062 3.48242L3.6709 10.9177V21.3648L11.1062 28.7059H21.5533L28.9885 21.3648V10.9177L21.5533 3.48242H11.1062Z" fill="#E21A36"/>
<path d="M11.1062 3.48242L3.6709 10.9177V21.3648L11.1062 28.7059H21.5533L28.9885 21.3648V10.9177L21.5533 3.48242H11.1062Z" fill="#E40134"/>
<path d="M15.4361 21.0824V19.3883C16.0949 19.3883 16.189 19.2001 16.189 18.8236V13.2707C15.7184 13.2707 15.2478 13.4589 15.2478 13.9295V14.7765H13.5537V11.4824H21.3655V14.7765H19.7655V13.9295C19.7655 13.4589 19.2949 13.2707 18.8243 13.2707V18.8236C18.8243 19.2001 19.0125 19.3883 19.5772 19.3883V21.0824H15.4361Z" fill="black"/>
<path d="M22.2109 21.0823V19.4823C22.7756 19.4823 22.9639 19.2941 22.9639 19.0117V13.647C22.8698 13.2705 22.5874 13.1764 22.3051 13.1764V11.5764H26.1639V13.1764C25.8815 13.1764 25.5992 13.3647 25.5051 13.647V19.0117C25.5051 19.3882 25.7874 19.4823 26.258 19.4823V21.0823H22.2109Z" fill="black"/>
<path d="M11.1994 11.4825H12.6112V14.3061H10.6347V14.1178C10.6347 13.3649 10.1641 13.0825 9.59941 13.1767C9.12883 13.2708 8.94059 13.459 8.94059 13.9296C8.94059 15.7178 12.9876 14.9649 12.9876 18.1649C12.9876 20.4237 12.0465 21.459 9.78765 21.2708C9.5053 21.2708 8.65824 20.8943 8.47 20.612C8.47 20.7061 8.47 21.0825 8.47 21.0825C8.47 21.0825 7.24647 21.0825 6.39941 21.0825V18.0708H8.47V18.259C8.56412 19.1061 8.94059 19.3884 9.69353 19.3884C10.1641 19.3884 10.3524 19.012 10.3524 18.5414C10.3524 16.2825 6.39941 17.9767 6.49353 14.1178C6.49353 12.4237 7.62294 11.3884 9.69353 11.3884C10.3524 11.3884 11.0112 11.7649 11.1994 12.0473H11.2935V11.859C11.1994 11.7649 11.1994 11.4825 11.1994 11.4825Z" fill="black"/>
<path d="M14.965 20.2353V18.5411C15.6238 18.5411 15.7179 18.3529 15.7179 17.9764V12.6117C15.2473 12.6117 14.8709 12.8 14.7768 13.2705V14.1176H13.1768V10.8235H20.8003V14.1176H19.2003V13.2705C19.2003 12.8 18.7297 12.6117 18.2591 12.6117V17.9764C18.2591 18.3529 18.3532 18.5411 19.0121 18.5411V20.2353H14.965Z" fill="white"/>
<path d="M21.6475 20.2353V18.5411C22.118 18.5411 22.4004 18.3529 22.4004 18.0705V12.8941C22.3063 12.5176 22.0239 12.4235 21.7416 12.4235V10.8235H25.5063V12.4235C25.318 12.4235 24.9416 12.6117 24.8475 12.8941V18.0705C24.8475 18.447 25.1298 18.5411 25.6004 18.5411V20.2353H21.6475Z" fill="white"/>
<path d="M10.8237 10.8236H12.1414V13.553H10.259V13.3648C10.259 12.6118 9.78845 12.4236 9.22375 12.4236C8.75316 12.5177 8.56492 12.7059 8.56492 13.1765C8.56492 14.8706 12.612 14.1177 12.612 17.3177C12.612 19.3883 11.4826 20.6118 9.41198 20.3295C9.12963 20.3295 8.18845 19.953 8.00022 19.6706C8.00022 19.7648 8.00022 20.1412 8.00022 20.1412C8.00022 20.1412 6.87081 20.1412 6.11787 20.1412V17.2236H8.00022V17.4118C8.09434 18.2589 8.65904 18.5412 9.31787 18.5412C9.78845 18.5412 9.97669 18.1648 9.97669 17.6942C9.97669 15.5295 6.02375 17.1295 6.11787 13.3648C6.11787 11.6706 7.52963 10.5412 9.22375 10.6354C9.88257 10.7295 10.5414 11.0118 10.7296 11.2001H10.8237V11.0118C10.8237 11.1059 10.8237 10.8236 10.8237 10.8236Z" fill="white"/>
</svg>
