<svg width="128" height="36" viewBox="0 0 128 36" fill="none" xmlns="http://www.w3.org/2000/svg">
<path d="M10.7911 2.30005L1.39844 11.6V24.7001L10.7911 34.1H23.8809L33.2735 24.7001V11.6L23.8809 2.30005H10.7911Z" fill="#E40134"/>
<path d="M11.2909 3.5L2.59766 12.1V24.2L11.2909 32.8H23.3814L31.9747 24.2V12.1L23.3814 3.5H11.2909Z" fill="white"/>
<path d="M11.7903 4.69995L3.89648 12.6V23.7L11.7903 31.5H22.8817L30.7755 23.7V12.6L22.8817 4.69995H11.7903Z" fill="#E21A36"/>
<path d="M11.7903 4.69995L3.89648 12.6V23.7L11.7903 31.5H22.8817L30.7755 23.7V12.6L22.8817 4.69995H11.7903Z" fill="#E40134"/>
<path d="M16.3871 23.4V21.6C17.0866 21.6 17.1865 21.4 17.1865 21V15.1C16.6869 15.1 16.1873 15.3 16.1873 15.8V16.7H14.3887V13.2H22.6822V16.7H20.9835V15.8C20.9835 15.3 20.4839 15.1 19.9843 15.1V21C19.9843 21.4 20.1841 21.6 20.7837 21.6V23.4H16.3871Z" fill="black"/>
<path d="M23.582 23.4V21.7C24.1816 21.7 24.3814 21.5 24.3814 21.2V15.5C24.2815 15.1 23.9817 15 23.682 15V13.3H27.7788V15C27.479 15 27.1792 15.2 27.0793 15.5V21.2C27.0793 21.6 27.3791 21.7 27.8787 21.7V23.4H23.582Z" fill="black"/>
<path d="M11.8909 13.2001H13.3898V16.2001H11.2914V16.0001C11.2914 15.2001 10.7918 14.9001 10.1923 15.0001C9.69266 15.1001 9.49281 15.3001 9.49281 15.8001C9.49281 17.7001 13.7895 16.9001 13.7895 20.3001C13.7895 22.7001 12.7902 23.8001 10.3921 23.6001C10.0923 23.6001 9.19305 23.2001 8.9932 22.9001C8.9932 23.0001 8.9932 23.4001 8.9932 23.4001C8.9932 23.4001 7.69422 23.4001 6.79492 23.4001V20.2001H8.9932V20.4001C9.09313 21.3001 9.49281 21.6001 10.2922 21.6001C10.7918 21.6001 10.9916 21.2001 10.9916 20.7001C10.9916 18.3001 6.79492 20.1001 6.89484 16.0001C6.89484 14.2001 8.09391 13.1001 10.2922 13.1001C10.9916 13.1001 11.6911 13.5001 11.8909 13.8001H11.9909V13.6001C11.8909 13.5001 11.8909 13.2001 11.8909 13.2001Z" fill="black"/>
<path d="M15.8878 22.5V20.7C16.5872 20.7 16.6872 20.5 16.6872 20.1V14.4C16.1875 14.4 15.7879 14.6 15.6879 15.1V16H13.9893V12.5H22.0829V16H20.3843V15.1C20.3843 14.6 19.8847 14.4 19.385 14.4V20.1C19.385 20.5 19.485 20.7 20.1844 20.7V22.5H15.8878Z" fill="white"/>
<path d="M22.9824 22.5V20.7C23.482 20.7 23.7818 20.5 23.7818 20.2V14.7C23.6819 14.3 23.3821 14.2 23.0823 14.2V12.5H27.0792V14.2C26.8794 14.2 26.4797 14.4 26.3798 14.7V20.2C26.3798 20.6 26.6795 20.7 27.1791 20.7V22.5H22.9824Z" fill="white"/>
<path d="M11.491 12.5H12.8899V15.4H10.8915V15.2C10.8915 14.4 10.3919 14.2 9.79234 14.2C9.29273 14.3 9.09289 14.5 9.09289 15C9.09289 16.8 13.3895 16 13.3895 19.4C13.3895 21.6 12.1905 22.9 9.99219 22.6C9.69242 22.6 8.6932 22.2 8.49336 21.9C8.49336 22 8.49336 22.4 8.49336 22.4C8.49336 22.4 7.2943 22.4 6.49492 22.4V19.3H8.49336V19.5C8.59328 20.4 9.19281 20.7 9.89227 20.7C10.3919 20.7 10.5917 20.3 10.5917 19.8C10.5917 17.5 6.395 19.2 6.49492 15.2C6.49492 13.4 7.99375 12.2 9.79234 12.3C10.4918 12.4 11.1913 12.7 11.3911 12.9H11.491V12.7C11.491 12.8 11.491 12.5 11.491 12.5Z" fill="white"/>
<path d="M29.2773 31.2999C29.2773 30.4999 29.9768 29.8999 30.7762 29.8999C31.5755 29.8999 32.1751 30.4999 32.1751 31.2999C32.1751 32.0999 31.5755 32.7999 30.7762 32.7999C29.9768 32.6999 29.2773 32.0999 29.2773 31.2999ZM31.9752 31.2999C31.9752 30.5999 31.4756 29.9999 30.7762 29.9999C30.0767 29.9999 29.5771 30.5999 29.5771 31.2999C29.5771 31.9999 30.0767 32.5999 30.7762 32.5999C31.4756 32.5999 31.9752 31.9999 31.9752 31.2999ZM31.4756 32.0999H31.2758L30.7762 31.3999H30.3765V32.0999H30.1766V30.4999H30.976C31.3757 30.4999 31.5755 30.6999 31.5755 30.8999C31.5755 31.1999 31.3757 31.2999 31.0759 31.2999L31.4756 32.0999ZM30.6763 31.1999C30.8761 31.1999 31.2758 31.1999 31.2758 30.8999C31.2758 30.5999 31.0759 30.5999 30.8761 30.5999H30.3765V31.1999H30.6763Z" fill="white"/>
<path d="M29.2773 31.2999C29.2773 30.4999 29.9768 29.8999 30.7762 29.8999C31.5755 29.8999 32.1751 30.4999 32.1751 31.2999C32.1751 32.0999 31.5755 32.7999 30.7762 32.7999C29.9768 32.6999 29.2773 32.0999 29.2773 31.2999ZM31.9752 31.2999C31.9752 30.5999 31.4756 29.9999 30.7762 29.9999C30.0767 29.9999 29.5771 30.5999 29.5771 31.2999C29.5771 31.9999 30.0767 32.5999 30.7762 32.5999C31.4756 32.5999 31.9752 31.9999 31.9752 31.2999ZM31.4756 32.0999H31.2758L30.7762 31.3999H30.3765V32.0999H30.1766V30.4999H30.976C31.3757 30.4999 31.5755 30.6999 31.5755 30.8999C31.5755 31.1999 31.3757 31.2999 31.0759 31.2999L31.4756 32.0999ZM30.6763 31.1999C30.8761 31.1999 31.2758 31.1999 31.2758 30.8999C31.2758 30.5999 31.0759 30.5999 30.8761 30.5999H30.3765V31.1999H30.6763Z" fill="white"/>
<path d="M40.1689 15.9C39.7692 15.9 39.4694 15.9 39.0697 15.8C38.67 15.7 38.3703 15.6 38.0705 15.4C37.7707 15.2 37.5709 15 37.3711 14.7C37.1712 14.4 37.0713 14.1 37.0713 13.7H38.5701C38.67 13.9 38.67 14.1 38.8699 14.3C38.9698 14.5 39.1697 14.6 39.4694 14.7C39.7692 14.8 39.969 14.8 40.2688 14.8C40.4686 14.8 40.7684 14.8 40.9682 14.7C41.1681 14.6 41.3679 14.5 41.4679 14.4C41.5678 14.3 41.6677 14.1 41.6677 13.9C41.6677 13.6 41.5678 13.5 41.3679 13.3C41.1681 13.2 40.9682 13.1 40.5686 13L39.1697 12.7C38.77 12.6 38.4702 12.5 38.1704 12.3C37.8707 12.1 37.6708 11.9 37.471 11.6C37.2711 11.3 37.2711 11 37.2711 10.6C37.2711 10.1 37.3711 9.70005 37.6708 9.40005C37.9706 9.10005 38.2704 8.80005 38.67 8.60005C39.0697 8.40005 39.5693 8.30005 40.1689 8.30005C40.7684 8.30005 41.268 8.40005 41.7676 8.60005C42.1673 8.80005 42.4671 9.10005 42.7668 9.40005C42.9667 9.70005 43.0666 10.1 43.0666 10.5H41.5678C41.5678 10.2 41.4679 10 41.3679 9.90005C41.268 9.70005 41.0682 9.60005 40.8683 9.60005C40.6685 9.50005 40.4686 9.50005 40.1689 9.50005C39.7692 9.50005 39.3695 9.60005 39.1697 9.80005C38.9698 10 38.8699 10.2 38.8699 10.4C38.8699 10.6 38.9698 10.8 39.0697 10.9C39.1696 11 39.4694 11.1 39.7692 11.2L41.0682 11.5C41.5678 11.6 41.9675 11.7 42.2672 11.9C42.567 12.1 42.7668 12.3 42.8668 12.6C42.9667 12.9 43.0666 13.2 43.0666 13.6C43.0666 14 42.9667 14.4 42.6669 14.8C42.3672 15.1 42.0674 15.4 41.5678 15.6C41.268 15.8 40.7684 15.9 40.1689 15.9Z" fill="white"/>
<path d="M45.7641 15.8999C45.4643 15.8999 45.1646 15.7999 44.8648 15.6999C44.565 15.5999 44.3652 15.3999 44.2653 15.1999C44.0654 14.9999 44.0654 14.6999 44.0654 14.2999C44.0654 13.6999 44.2653 13.2999 44.665 12.9999C45.0647 12.6999 45.7641 12.4999 46.6634 12.4999H47.3629V12.1999C47.3629 11.9999 47.2629 11.7999 47.163 11.5999C47.0631 11.4999 46.7633 11.3999 46.4636 11.3999C46.2637 11.3999 46.0639 11.4999 45.864 11.5999C45.6642 11.6999 45.5643 11.8999 45.4643 12.0999H44.2653C44.2653 11.6999 44.3652 11.3999 44.565 11.1999C44.7649 10.9999 45.0647 10.7999 45.3644 10.5999C45.6642 10.4999 46.0639 10.3999 46.5635 10.3999C47.0631 10.3999 47.5627 10.4999 47.8625 10.5999C48.1622 10.6999 48.462 10.8999 48.5619 11.1999C48.6618 11.3999 48.7618 11.6999 48.7618 12.0999V15.7999H47.5627L47.4628 14.8999C47.2629 15.2999 47.0631 15.4999 46.7633 15.6999C46.4636 15.8999 46.1638 15.8999 45.7641 15.8999ZM46.2637 14.8999C46.3636 14.8999 46.5635 14.8999 46.6634 14.7999C46.7633 14.7999 46.8632 14.6999 46.9632 14.5999C47.0631 14.4999 47.163 14.3999 47.163 14.2999C47.2629 14.1999 47.2629 14.0999 47.2629 13.9999V13.1999H46.7633C46.5635 13.1999 46.2637 13.1999 46.0639 13.2999C45.864 13.3999 45.6642 13.3999 45.5643 13.5999C45.4643 13.7999 45.3644 13.8999 45.3644 14.0999C45.3644 14.2999 45.4643 14.4999 45.6642 14.6999C45.864 14.7999 46.0639 14.8999 46.2637 14.8999Z" fill="white"/>
<path d="M50.5607 15.8V11.6H49.5615V10.6H50.5607V9.70005C50.5607 9.30005 50.6607 8.90005 50.9604 8.70005C51.2602 8.50005 51.56 8.30005 52.0596 8.30005H53.2586V9.30005H52.5592C52.3593 9.30005 52.2594 9.30005 52.1595 9.40005C52.0596 9.60005 51.9597 9.70005 51.9597 10V10.5H53.0588V11.5H51.9597V15.7H50.5607V15.8Z" fill="white"/>
<path d="M56.3558 15.9C55.8562 15.9 55.3566 15.8 54.9569 15.6C54.5572 15.4 54.2574 15.1 54.0576 14.7C53.8577 14.3 53.7578 13.8 53.7578 13.3C53.7578 12.8 53.8577 12.3 54.0576 11.9C54.2574 11.5 54.5572 11.1 54.9569 10.9C55.3566 10.7 55.7563 10.5 56.3558 10.5C56.8554 10.5 57.355 10.6 57.7547 10.8C58.1544 11 58.3542 11.3 58.5541 11.7C58.7539 12.1 58.8538 12.6 58.8538 13.1V13.5H55.3566C55.3566 13.8 55.3566 14 55.4565 14.2C55.5564 14.4 55.6563 14.6 55.8562 14.7C56.056 14.8 56.2559 14.9 56.4557 14.9C56.7555 14.9 56.9553 14.8 57.1552 14.7C57.355 14.6 57.4549 14.4 57.5548 14.2H58.8538C58.7539 14.6 58.654 14.9 58.3542 15.2C58.1544 15.5 57.8546 15.7 57.4549 15.8C57.0552 15.8 56.7555 15.9 56.3558 15.9ZM55.2566 12.6H57.4549C57.4549 12.4 57.4549 12.2 57.355 12C57.2551 11.8 57.1552 11.7 56.9553 11.6C56.7555 11.5 56.5556 11.4 56.3558 11.4C56.1559 11.4 55.9561 11.5 55.7563 11.6C55.5564 11.7 55.4565 11.9 55.3566 12C55.2566 12.2 55.2566 12.4 55.2566 12.6Z" fill="white"/>
<path d="M61.9515 15.7999C61.4519 15.7999 61.1521 15.6999 60.8523 15.5999C60.5526 15.4999 60.4527 15.2999 60.3527 15.0999C60.2528 14.8999 60.2528 14.5999 60.2528 14.3999V11.4999H59.3535V10.4999H60.2528L60.6525 8.8999H61.7516V10.4999H62.9507V11.4999H61.7516V14.2999C61.7516 14.3999 61.7516 14.4999 61.7516 14.5999C61.7516 14.6999 61.8516 14.6999 61.9515 14.6999C62.0514 14.6999 62.1513 14.6999 62.2512 14.6999H62.9507V15.5999C62.8508 15.5999 62.7509 15.6999 62.6509 15.6999C62.4511 15.7999 62.2513 15.7999 61.9515 15.7999Z" fill="white"/>
<path d="M64.7492 17.4C64.3495 17.4 64.0497 17.3 63.75 17.2V16.2H64.2496C64.4494 16.2 64.6493 16.2 64.8491 16.2C64.949 16.2 65.0489 16.1 65.1489 16.1C65.2488 16 65.2488 16 65.3487 15.9C65.3487 15.8 65.4486 15.8 65.4486 15.7L65.5486 15.4L63.4502 10.3H64.949L66.248 13.7L67.547 10.3H68.9459L66.8475 15.6C66.6477 16 66.4479 16.4 66.248 16.6C66.0482 16.8 65.8483 17 65.5486 17.1C65.2488 17.4 65.0489 17.4 64.7492 17.4Z" fill="white"/>
<path d="M73.7425 15.7999V9.6999H71.4443V8.3999H77.3397V9.6999H75.1414V15.7999H73.7425Z" fill="white"/>
<path d="M79.8372 15.9C79.3376 15.9 78.838 15.8 78.4383 15.6C78.0386 15.4 77.7389 15.1 77.539 14.7C77.3392 14.3 77.2393 13.8 77.2393 13.3C77.2393 12.8 77.3392 12.3 77.539 11.9C77.7389 11.5 78.0386 11.1 78.4383 10.9C78.838 10.7 79.2377 10.5 79.8372 10.5C80.3368 10.5 80.8364 10.6 81.2361 10.8C81.6358 11 81.8357 11.3 82.0355 11.7C82.2353 12.1 82.3353 12.6 82.3353 13.1V13.5H78.838C78.838 13.8 78.838 14 78.9379 14.2C79.0378 14.4 79.1378 14.6 79.3376 14.7C79.5375 14.8 79.7373 14.9 79.9371 14.9C80.2369 14.9 80.4368 14.8 80.6366 14.7C80.8364 14.6 80.9364 14.4 81.0363 14.2H82.3353C82.2354 14.6 82.1354 14.9 81.8357 15.2C81.6358 15.5 81.3361 15.7 80.9364 15.8C80.5367 15.8 80.2369 15.9 79.8372 15.9ZM78.6382 12.6H80.8364C80.8364 12.4 80.8364 12.2 80.7365 12C80.6366 11.8 80.5367 11.7 80.3368 11.6C80.137 11.5 79.9372 11.4 79.7373 11.4C79.5375 11.4 79.3376 11.5 79.1378 11.6C78.9379 11.7 78.838 11.9 78.7381 12C78.7381 12.2 78.6382 12.4 78.6382 12.6Z" fill="white"/>
<path d="M85.6328 15.9C85.1332 15.9 84.7335 15.8 84.3338 15.6C83.9341 15.4 83.6344 15.1 83.4345 14.7C83.2347 14.3 83.1348 13.8 83.1348 13.2C83.1348 12.7 83.2347 12.2 83.4345 11.8C83.6344 11.4 83.9341 11.1 84.3338 10.8C84.7335 10.6 85.1332 10.5 85.6328 10.5C86.0325 10.5 86.4322 10.6 86.732 10.8C87.0317 11 87.3315 11.2 87.5313 11.5C87.7312 11.8 87.8311 12.1 87.8311 12.5H86.632C86.632 12.4 86.5321 12.2 86.5321 12.1C86.4322 12 86.3323 11.8 86.2324 11.8C86.1324 11.7 85.9326 11.7 85.7327 11.7C85.433 11.7 85.1332 11.8 84.9334 12.1C84.7335 12.4 84.6336 12.8 84.6336 13.3C84.6336 13.8 84.7335 14.2 84.9334 14.5C85.1332 14.8 85.433 15 85.8327 15C86.0325 15 86.2324 15 86.3323 14.9C86.4322 14.8 86.5321 14.7 86.632 14.5C86.732 14.4 86.732 14.2 86.732 14.1H87.931C87.931 14.5 87.8311 14.8 87.6313 15.1C87.4314 15.4 87.2316 15.6 86.8319 15.8C86.4322 15.8 86.0325 15.9 85.6328 15.9Z" fill="white"/>
<path d="M88.8311 15.8V8.19995H90.3299V11.3C90.4298 11.2 90.5297 11.1 90.6296 10.9C90.7296 10.8 90.9294 10.7 91.1293 10.6C91.3291 10.5 91.5289 10.5 91.8287 10.5C92.1285 10.5 92.4282 10.6 92.728 10.7C93.0278 10.8 93.2276 11 93.4275 11.3C93.6273 11.5 93.7272 11.9 93.7272 12.2V15.8H92.2284V12.4C92.2284 12.2 92.1285 12 91.9286 11.9C91.7288 11.8 91.5289 11.7 91.3291 11.7C91.1293 11.7 91.0293 11.7 90.8295 11.8C90.6296 11.9 90.5297 11.9 90.4298 12.1C90.3299 12.2 90.3299 12.4 90.3299 12.5V15.9H88.8311V15.8Z" fill="white"/>
<path d="M94.9258 15.7999V10.4999H96.4246V11.1999C96.5245 11.0999 96.6245 10.8999 96.7244 10.7999C96.8243 10.6999 97.0241 10.5999 97.224 10.4999C97.4238 10.3999 97.6237 10.3999 97.9234 10.3999C98.2232 10.3999 98.523 10.4999 98.8227 10.5999C99.1225 10.6999 99.3223 10.8999 99.5222 11.1999C99.722 11.4999 99.822 11.7999 99.822 12.2999V15.7999H98.3231V12.4999C98.3231 12.1999 98.2232 11.9999 98.0234 11.8999C97.8235 11.7999 97.6237 11.6999 97.4238 11.6999C97.224 11.6999 97.1241 11.6999 96.9242 11.7999C96.7244 11.8999 96.6245 11.8999 96.5245 12.0999C96.4246 12.1999 96.4246 12.3999 96.4246 12.4999V15.8999H94.9258V15.7999Z" fill="white"/>
<path d="M103.219 15.9C102.719 15.9 102.22 15.8 101.82 15.6C101.42 15.4 101.121 15.1 100.921 14.7C100.721 14.3 100.621 13.8 100.621 13.3C100.621 12.8 100.721 12.3 100.921 11.8C101.121 11.4 101.42 11.1 101.82 10.8C102.22 10.6 102.62 10.5 103.219 10.5C103.819 10.5 104.218 10.6 104.618 10.8C105.018 11 105.317 11.3 105.517 11.8C105.717 12.2 105.817 12.7 105.817 13.3C105.817 13.8 105.717 14.3 105.517 14.7C105.317 15.1 105.018 15.4 104.618 15.7C104.218 15.7 103.819 15.9 103.219 15.9ZM103.219 14.7C103.519 14.7 103.719 14.6 103.819 14.5C104.018 14.3 104.118 14.1 104.118 13.9C104.218 13.7 104.218 13.4 104.218 13.1C104.218 12.8 104.218 12.6 104.118 12.3C104.018 12.1 103.919 11.9 103.819 11.7C103.619 11.5 103.419 11.5 103.119 11.5C102.819 11.5 102.62 11.6 102.52 11.7C102.42 11.8 102.22 12 102.12 12.3C102.02 12.5 102.02 12.8 102.02 13.1C102.02 13.4 102.02 13.6 102.12 13.9C102.22 14.2 102.32 14.4 102.42 14.5C102.52 14.6 103.019 14.7 103.219 14.7Z" fill="white"/>
<path d="M108.515 15.8C108.115 15.8 107.815 15.8 107.615 15.7C107.416 15.6 107.216 15.5 107.116 15.3C107.016 15.1 106.916 15 106.916 14.8C106.916 14.6 106.916 14.4 106.916 14.2V8.19995H108.415V14.1C108.415 14.3 108.415 14.5 108.515 14.6C108.615 14.7 108.715 14.8 109.014 14.8H109.214V15.7C109.114 15.7 109.014 15.8 108.914 15.8C108.715 15.8 108.615 15.8 108.515 15.8Z" fill="white"/>
<path d="M112.212 15.9C111.713 15.9 111.213 15.8 110.813 15.6C110.414 15.4 110.114 15.1 109.914 14.7C109.714 14.3 109.614 13.8 109.614 13.3C109.614 12.8 109.714 12.3 109.914 11.8C110.114 11.4 110.414 11.1 110.813 10.8C111.213 10.6 111.613 10.5 112.212 10.5C112.812 10.5 113.211 10.6 113.611 10.8C114.011 11 114.311 11.3 114.51 11.8C114.71 12.2 114.81 12.7 114.81 13.3C114.81 13.8 114.71 14.3 114.51 14.7C114.311 15.1 114.011 15.4 113.611 15.7C113.211 15.7 112.712 15.9 112.212 15.9ZM112.212 14.7C112.512 14.7 112.712 14.6 112.812 14.5C113.012 14.3 113.112 14.1 113.112 13.9C113.211 13.7 113.211 13.4 113.211 13.1C113.211 12.8 113.211 12.6 113.112 12.3C113.012 12.1 112.912 11.9 112.812 11.7C112.612 11.5 112.412 11.5 112.112 11.5C111.813 11.5 111.613 11.6 111.513 11.7C111.413 11.8 111.213 12 111.113 12.3C111.013 12.5 111.013 12.8 111.013 13.1C111.013 13.4 111.013 13.6 111.113 13.9C111.213 14.2 111.313 14.4 111.413 14.5C111.513 14.6 111.912 14.7 112.212 14.7Z" fill="white"/>
<path d="M118.107 17.5C117.208 17.5 116.409 17.4 116.009 17.1C115.509 16.9 115.31 16.5 115.31 16.2C115.31 16 115.31 15.9 115.409 15.7C115.509 15.6 115.609 15.5 115.709 15.4C115.809 15.3 115.909 15.3 116.109 15.2C116.209 15.2 116.309 15.1 116.309 15.1C116.209 15.1 116.209 15 116.109 15C116.009 14.9 115.909 14.9 115.809 14.8C115.709 14.7 115.709 14.6 115.709 14.4C115.709 14.2 115.809 14 116.009 13.9C116.209 13.7 116.409 13.6 116.808 13.6C116.509 13.4 116.209 13.2 116.009 12.9C115.809 12.6 115.709 12.3 115.709 12C115.709 11.7 115.809 11.4 116.009 11.1C116.209 10.9 116.509 10.7 116.908 10.5C117.308 10.4 117.708 10.3 118.207 10.3C118.607 10.3 118.907 10.3 119.107 10.4C119.306 10.5 119.506 10.6 119.706 10.7C119.806 10.7 119.906 10.6 120.006 10.6C120.106 10.6 120.306 10.5 120.406 10.4C120.605 10.3 120.705 10.3 120.805 10.2C120.905 10.1 121.105 10.1 121.205 10V11.2L120.306 11.3C120.306 11.4 120.406 11.5 120.406 11.6C120.406 11.7 120.406 11.8 120.406 11.9C120.406 12.2 120.306 12.5 120.106 12.8C119.906 13.1 119.706 13.3 119.306 13.4C118.907 13.6 118.507 13.6 118.007 13.6C117.908 13.6 117.908 13.6 117.708 13.6C117.608 13.6 117.508 13.6 117.408 13.6C117.208 13.6 117.108 13.6 117.008 13.7C116.908 13.7 116.908 13.8 116.908 13.8C116.908 13.9 117.008 13.9 117.108 14C117.308 14 117.508 14 117.808 14.1C117.908 14.1 118.107 14.1 118.307 14.1C118.507 14.1 118.707 14.1 118.907 14.1C119.506 14.1 120.006 14.3 120.306 14.6C120.605 14.9 120.805 15.2 120.805 15.6C120.805 16.1 120.605 16.5 120.106 16.8C119.806 17.3 119.107 17.5 118.107 17.5ZM118.407 16.7C118.807 16.7 119.107 16.6 119.306 16.5C119.506 16.4 119.606 16.3 119.606 16.1C119.606 15.9 119.506 15.8 119.406 15.7C119.306 15.6 119.107 15.5 118.807 15.5L117.608 15.4C117.408 15.4 117.308 15.4 117.208 15.5C117.108 15.6 117.008 15.6 116.908 15.7C116.808 15.8 116.808 15.9 116.808 16C116.808 16.2 116.908 16.4 117.208 16.5C117.408 16.6 117.808 16.7 118.407 16.7ZM118.107 13C118.407 13 118.607 12.9 118.807 12.8C119.007 12.6 119.107 12.4 119.107 12.2C119.107 11.9 119.007 11.7 118.807 11.5C118.607 11.3 118.407 11.3 118.107 11.3C117.808 11.3 117.608 11.4 117.408 11.5C117.208 11.7 117.108 11.9 117.108 12.2C117.108 12.5 117.208 12.7 117.408 12.8C117.608 12.9 117.808 13 118.107 13Z" fill="white"/>
<path d="M123.004 17.4C122.604 17.4 122.305 17.3 122.005 17.2V16.2H122.504C122.704 16.2 122.904 16.2 123.104 16.2C123.204 16.2 123.304 16.1 123.404 16.1C123.504 16 123.504 16 123.604 15.9C123.604 15.8 123.704 15.8 123.704 15.7L123.803 15.4L121.705 10.3H123.204L124.503 13.7L125.802 10.3H127.301L125.202 15.6C125.003 16 124.803 16.4 124.603 16.6C124.403 16.8 124.203 17 123.903 17.1C123.504 17.4 123.304 17.4 123.004 17.4Z" fill="white"/>
<path d="M38.9695 20.6001H37.4707V28.0001H38.9695V20.6001Z" fill="white"/>
<path d="M40.3682 28.0001V22.7001H41.867V23.4001C41.9669 23.3001 42.0668 23.1001 42.1668 23.0001C42.2667 22.9001 42.4665 22.8001 42.6664 22.7001C42.8662 22.6001 43.0661 22.6001 43.3658 22.6001C43.6656 22.6001 43.9654 22.7001 44.2651 22.8001C44.5649 22.9001 44.7647 23.1001 44.9646 23.4001C45.1644 23.7001 45.2643 24.0001 45.2643 24.5001V28.0001H43.7655V24.7001C43.7655 24.4001 43.6656 24.2001 43.4657 24.1001C43.2659 24.0001 43.0661 23.9001 42.8662 23.9001C42.6664 23.9001 42.5664 23.9001 42.3666 24.0001C42.1668 24.1001 42.0668 24.1001 41.9669 24.3001C41.867 24.4001 41.867 24.6001 41.867 24.7001V28.0001H40.3682Z" fill="white"/>
<path d="M48.5618 28.1C48.0622 28.1 47.7625 27.9999 47.4627 27.9C47.1629 27.8 47.063 27.5999 46.9631 27.4C46.8632 27.2 46.8632 26.9 46.8632 26.7V23.7999H45.9639V22.7999H46.8632L47.2629 21.2H48.362V22.7999H49.5611V23.7999H48.362V26.6C48.362 26.7 48.362 26.8 48.362 26.9C48.362 26.9999 48.4619 27 48.5618 27C48.6618 27 48.7617 27 48.8616 27H49.5611V27.9C49.4611 27.9 49.3612 28 49.2613 28C49.1614 28 48.7617 28.1 48.5618 28.1Z" fill="white"/>
<path d="M52.7591 28.1C52.2595 28.1 51.7599 27.9999 51.3602 27.7999C50.9605 27.5999 50.6607 27.3 50.4609 26.9C50.2611 26.4999 50.1611 26 50.1611 25.5C50.1611 25 50.2611 24.5 50.4609 24.1C50.6607 23.7 50.9605 23.3 51.3602 23.1C51.7599 22.9 52.1596 22.7 52.7591 22.7C53.2587 22.7 53.7583 22.8 54.158 23C54.5577 23.2 54.7575 23.5 54.9574 23.9C55.1572 24.3 55.2571 24.7999 55.2571 25.2999V25.7H51.7599C51.7599 26 51.7599 26.1999 51.8598 26.4C51.9597 26.6 52.0596 26.8 52.2595 26.9C52.4593 26.9999 52.6592 27.1 52.859 27.1C53.1588 27.1 53.3586 26.9999 53.5585 26.9C53.7583 26.8 53.8582 26.6 53.9582 26.4H55.2571C55.1572 26.8 55.0573 27.0999 54.7575 27.4C54.5577 27.7 54.2579 27.9 53.8582 28C53.4586 28 53.1588 28.1 52.7591 28.1ZM51.56 24.7999H53.7583C53.7583 24.5999 53.7583 24.4 53.6584 24.2C53.5585 24 53.4586 23.8999 53.2587 23.7999C53.0589 23.6999 52.859 23.6 52.6592 23.6C52.4593 23.6 52.2595 23.6999 52.0596 23.7999C51.8598 23.8999 51.7599 24.1 51.66 24.2C51.66 24.4 51.56 24.5999 51.56 24.7999Z" fill="white"/>
<path d="M56.2559 28.0001V22.7001H57.6548V24.0001C57.7547 23.7001 57.8546 23.5001 58.0545 23.3001C58.2543 23.1001 58.3542 22.9001 58.654 22.8001C58.8538 22.7001 59.1536 22.6001 59.4534 22.6001H59.5533H59.6532V24.0001H59.5533H59.4534C59.1536 24.0001 58.9538 24.0001 58.654 24.0001C58.4541 24.0001 58.2543 24.1001 58.1544 24.2001C58.0545 24.3001 57.9545 24.4001 57.8546 24.6001C57.7547 24.7001 57.7547 24.9001 57.7547 25.1001V28.0001H56.2559Z" fill="white"/>
<path d="M60.4531 28.0001V22.7001H61.952V23.4001C62.0519 23.3001 62.1518 23.1001 62.2517 23.0001C62.3516 22.9001 62.5515 22.8001 62.7513 22.7001C62.9512 22.6001 63.151 22.6001 63.4508 22.6001C63.7505 22.6001 64.0503 22.7001 64.3501 22.8001C64.6498 22.9001 64.8497 23.1001 65.0495 23.4001C65.2494 23.7001 65.3493 24.0001 65.3493 24.5001V28.0001H63.8505V24.7001C63.8505 24.4001 63.7505 24.2001 63.5507 24.1001C63.3509 24.0001 63.151 23.9001 62.9512 23.9001C62.7513 23.9001 62.6514 23.9001 62.4516 24.0001C62.2517 24.1001 62.1518 24.1001 62.0519 24.3001C61.952 24.3001 61.952 24.5001 61.952 24.6001V28.0001H60.4531Z" fill="white"/>
<path d="M68.0473 28.1001C67.7475 28.1001 67.4478 28.0001 67.148 27.9001C66.8482 27.8001 66.6484 27.6001 66.5485 27.4001C66.3486 27.2001 66.3486 26.9001 66.3486 26.5001C66.3486 25.9001 66.5485 25.5001 66.9482 25.2001C67.3479 24.9001 68.0473 24.7001 68.9466 24.7001H69.6461V24.4001C69.6461 24.2001 69.5461 24.0001 69.4462 23.8001C69.3463 23.7001 69.0465 23.6001 68.7468 23.6001C68.5469 23.6001 68.3471 23.7001 68.1472 23.8001C67.9474 23.9001 67.8475 24.1001 67.7475 24.3001H66.5485C66.5485 23.9001 66.6484 23.6001 66.8482 23.4001C67.0481 23.2001 67.3478 23.0001 67.6476 22.8001C67.9474 22.7001 68.3471 22.6001 68.8467 22.6001C69.3463 22.6001 69.8459 22.7001 70.1457 22.8001C70.4454 22.9001 70.7452 23.1001 70.8451 23.4001C70.945 23.6001 71.045 23.9001 71.045 24.3001V28.0001H69.8459L69.746 27.1001C69.5461 27.5001 69.3463 27.7001 69.0465 27.9001C68.7468 28.0001 68.3471 28.1001 68.0473 28.1001ZM68.5469 27.1001C68.6468 27.1001 68.8467 27.1001 68.9466 27.0001C69.0465 27.0001 69.1464 26.9001 69.2464 26.8001C69.3463 26.7001 69.4462 26.6001 69.4462 26.5001C69.5461 26.4001 69.5461 26.3001 69.5461 26.2001V25.4001H69.0465C68.8467 25.4001 68.5469 25.4001 68.3471 25.5001C68.1472 25.6001 67.9474 25.6001 67.8475 25.8001C67.7475 26.0001 67.6476 26.1001 67.6476 26.3001C67.6476 26.5001 67.7475 26.7001 67.9474 26.9001C68.0473 27.1001 68.2471 27.1001 68.5469 27.1001Z" fill="white"/>
<path d="M74.3421 28.1C73.8425 28.1 73.5427 27.9999 73.243 27.9C72.9432 27.8 72.8433 27.5999 72.7434 27.4C72.6434 27.2 72.6434 26.9 72.6434 26.7V23.7999H71.7441V22.7999H72.6434L73.0431 21.2H74.1423V22.7999H75.3413V23.7999H74.1423V26.6C74.1423 26.7 74.1423 26.8 74.1423 26.9C74.1423 26.9999 74.2422 27 74.3421 27C74.442 27 74.5419 27 74.6419 27H75.3413V27.9C75.1415 27.9999 75.0416 28 74.9416 28C74.7418 28.1 74.542 28.1 74.3421 28.1Z" fill="white"/>
<path d="M76.3408 20.6001H77.8396V22.0001H76.3408V20.6001ZM76.3408 22.7001H77.7397V28.0001H76.3408V22.7001Z" fill="white"/>
<path d="M81.3362 28.1C80.8366 28.1 80.337 27.9999 79.9373 27.7999C79.5377 27.5999 79.2379 27.3 79.038 26.9C78.8382 26.4999 78.7383 26 78.7383 25.5C78.7383 25 78.8382 24.5 79.038 24C79.2379 23.6 79.5377 23.3 79.9373 23C80.337 22.8 80.7367 22.7 81.3362 22.7C81.9358 22.7 82.3355 22.8 82.7352 23C83.1348 23.2 83.4346 23.5 83.6344 24C83.8343 24.4 83.9342 24.9 83.9342 25.5C83.9342 26 83.8343 26.4999 83.6344 26.9C83.4346 27.3 83.1348 27.5999 82.7352 27.9C82.3355 27.9999 81.8359 28.1 81.3362 28.1ZM81.3362 27C81.636 27 81.8359 26.8999 81.9358 26.7999C82.1356 26.5999 82.2355 26.4 82.2355 26.2C82.3355 26 82.3355 25.6999 82.3355 25.4C82.3355 25.1 82.3355 24.9 82.2355 24.6C82.1356 24.4 82.0357 24.2 81.9358 24C81.7359 23.8 81.5361 23.7999 81.2363 23.7999C80.9366 23.7999 80.7367 23.9 80.6368 24C80.5369 24.1 80.337 24.3 80.2371 24.6C80.1372 24.8 80.1372 25.1 80.1372 25.4C80.1372 25.6999 80.1372 25.9 80.2371 26.2C80.337 26.5 80.4369 26.6999 80.5369 26.7999C80.6368 26.8999 81.0365 27 81.3362 27Z" fill="white"/>
<path d="M84.9336 28.0001V22.7001H86.4324V23.4001C86.5323 23.3001 86.6323 23.1001 86.7322 23.0001C86.8321 22.9001 87.032 22.8001 87.2318 22.7001C87.4316 22.6001 87.6315 22.6001 87.9313 22.6001C88.231 22.6001 88.5308 22.7001 88.8306 22.8001C89.1303 22.9001 89.3302 23.1001 89.53 23.4001C89.7298 23.7001 89.8298 24.0001 89.8298 24.5001V28.0001H88.3309V24.7001C88.3309 24.4001 88.231 24.2001 88.0312 24.1001C87.8313 24.0001 87.6315 23.9001 87.4316 23.9001C87.2318 23.9001 87.1319 23.9001 86.932 24.0001C86.7322 24.1001 86.6323 24.1001 86.5323 24.3001C86.4324 24.4001 86.4324 24.6001 86.4324 24.7001V28.0001H84.9336Z" fill="white"/>
<path d="M92.4282 28.1001C92.1284 28.1001 91.8286 28.0001 91.5289 27.9001C91.2291 27.8001 91.0293 27.6001 90.9293 27.4001C90.7295 27.2001 90.7295 26.9001 90.7295 26.5001C90.7295 25.9001 90.9293 25.5001 91.329 25.2001C91.7287 24.9001 92.4282 24.7001 93.3275 24.7001H94.0269V24.4001C94.0269 24.2001 93.927 24.0001 93.8271 23.8001C93.7271 23.7001 93.4274 23.6001 93.1276 23.6001C92.9278 23.6001 92.7279 23.7001 92.5281 23.8001C92.3282 23.9001 92.2283 24.1001 92.1284 24.3001H90.9293C90.9293 23.9001 91.0293 23.6001 91.2291 23.4001C91.4289 23.2001 91.7287 23.0001 92.0285 22.8001C92.3282 22.7001 92.7279 22.6001 93.2275 22.6001C93.7271 22.6001 94.2268 22.7001 94.5265 22.8001C94.8263 22.9001 95.1261 23.1001 95.226 23.4001C95.3259 23.6001 95.4258 23.9001 95.4258 24.3001V28.0001H94.2268L94.1268 27.1001C93.927 27.5001 93.7271 27.7001 93.4274 27.9001C93.1276 28.0001 92.8278 28.1001 92.4282 28.1001ZM93.0277 27.1001C93.1276 27.1001 93.3275 27.1001 93.4274 27.0001C93.5273 27.0001 93.6272 26.9001 93.7271 26.8001C93.8271 26.7001 93.927 26.6001 93.927 26.5001C94.0269 26.4001 94.0269 26.3001 94.0269 26.2001V25.4001H93.5273C93.3275 25.4001 93.0277 25.4001 92.8279 25.5001C92.628 25.6001 92.4282 25.6001 92.3282 25.8001C92.2283 26.0001 92.1284 26.1001 92.1284 26.3001C92.1284 26.5001 92.2283 26.7001 92.4282 26.9001C92.5281 27.1001 92.7279 27.1001 93.0277 27.1001Z" fill="white"/>
<path d="M98.423 28.0999C98.0233 28.0999 97.7235 28.0999 97.5237 27.9999C97.3238 27.8999 97.124 27.7999 97.0241 27.5999C96.9241 27.3999 96.8242 27.2999 96.8242 27.0999C96.8242 26.8999 96.8242 26.6999 96.8242 26.4999V20.3999H98.323V26.2999C98.323 26.4999 98.323 26.6999 98.423 26.7999C98.5229 26.8999 98.6228 26.9999 98.9226 26.9999H99.1224V27.9999C99.0225 27.9999 98.9226 28.0999 98.8227 28.0999C98.6228 28.0999 98.5229 28.0999 98.423 28.0999Z" fill="white"/>
</svg>
