<svg width="31" height="31" viewBox="0 0 31 31" fill="none" xmlns="http://www.w3.org/2000/svg">
<path fill-rule="evenodd" clip-rule="evenodd" d="M20.9113 0.417793C16.7615 -1.05767 6.73718 1.52814 3.0444 5.76389L2.92014 5.92742C2.66247 6.28743 2.34787 6.78666 2.10802 7.15806C1.65221 7.93325 1.62696 7.98959 0.99863 9.42177C0.675366 10.2478 0.667073 10.2784 0.263241 11.8437C0.164975 12.3274 0.0724002 12.9793 0 13.4668C0.316457 10.6449 3.91803 6.26701 19.2833 1.43673C21.0625 0.877901 21.1837 0.519775 20.9113 0.417793Z" fill="white"/>
<path fill-rule="evenodd" clip-rule="evenodd" d="M28.3589 6.38234C24.4736 3.29279 7.19114 7.4051 1.35617 13.9003C0.412868 15.1627 -0.0672013 16.1307 0.102599 17.6283C0.32871 18.9107 0.401482 19.1363 0.875239 20.6063C1.18501 21.4433 1.2141 21.4988 1.94652 22.9174C2.20951 23.3634 2.59218 23.9387 2.87856 24.3696C1.48984 22.2888 0.745785 16.5962 23.8031 8.69431C26.6453 7.72024 28.745 7.07612 28.3589 6.38234Z" fill="white"/>
<path fill-rule="evenodd" clip-rule="evenodd" d="M26.6219 17.9456C-4.14773 28.5673 14.6732 31.4788 18.5028 30.5762C18.2008 30.7452 16.3998 30.8339 16.1835 30.8471C14.7292 30.8852 13.5221 30.7767 12.1493 30.4859C11.2203 30.2513 10.6068 30.0966 9.44879 29.6162C8.29496 29.0777 8.08618 28.9806 7.12518 28.3861C6.71144 28.0992 6.16144 27.7145 5.76318 27.4062C4.19711 26.0173 3.57286 24.6888 5.29524 22.3577C10.9816 16.0737 29.1991 12.1997 30.9891 15.8017C31.2529 16.439 26.6219 17.9456 26.6219 17.9456Z" fill="white"/>
<path fill-rule="evenodd" clip-rule="evenodd" d="M25.5293 26.3766C18.3166 28.6395 15.5482 30.0848 17.3025 30.6729C17.4105 30.7082 17.5589 30.7311 17.6707 30.747C15.5969 31.3642 12.0474 30.8925 12.8302 28.8861C15.1217 25.1384 27.0134 23.2797 27.9126 24.771C28.3108 25.5362 25.5293 26.3766 25.5293 26.3766Z" fill="white"/>
</svg>
